name GIL08_static.mot
datacolumns 141
datarows 4
range 1.40833330 1.43333328
endheader

                time	           pelvis_tx	           pelvis_ty	           pelvis_tz	         pelvis_tilt	         pelvis_list	     pelvis_rotation	       hip_flexion_r	     hip_adduction_r	      hip_rotation_r	        knee_angle_r	       ankle_angle_r	    subtalar_angle_r	         mtp_angle_r	       hip_flexion_l	     hip_adduction_l	      hip_rotation_l	        knee_angle_l	       ankle_angle_l	    subtalar_angle_l	         mtp_angle_l	    lumbar_extension	      lumbar_bending	     lumbar_rotation	    ground_marker_px	    ground_marker_py	    ground_marker_pz	    ground_marker_px	    ground_marker_py	    ground_marker_pz	    ground_marker_px	    ground_marker_py	    ground_marker_pz	    ground_marker_px	    ground_marker_py	    ground_marker_pz	    ground_marker_px	    ground_marker_py	    ground_marker_pz	    ground_marker_px	    ground_marker_py	    ground_marker_pz	    ground_marker_px	    ground_marker_py	    ground_marker_pz	    ground_marker_px	    ground_marker_py	    ground_marker_pz	    ground_marker_px	    ground_marker_py	    ground_marker_pz	    ground_marker_px	    ground_marker_py	    ground_marker_pz	    ground_marker_px	    ground_marker_py	    ground_marker_pz	    ground_marker_px	    ground_marker_py	    ground_marker_pz	    ground_marker_px	    ground_marker_py	    ground_marker_pz	    ground_marker_px	    ground_marker_py	    ground_marker_pz	    ground_marker_px	    ground_marker_py	    ground_marker_pz	    ground_marker_px	    ground_marker_py	    ground_marker_pz	    ground_marker_px	    ground_marker_py	    ground_marker_pz	    ground_marker_px	    ground_marker_py	    ground_marker_pz	    ground_marker_px	    ground_marker_py	    ground_marker_pz	    ground_marker_px	    ground_marker_py	    ground_marker_pz	    ground_marker_px	    ground_marker_py	    ground_marker_pz	    ground_marker_px	    ground_marker_py	    ground_marker_pz	    ground_marker_px	    ground_marker_py	    ground_marker_pz	    ground_marker_px	    ground_marker_py	    ground_marker_pz	    ground_marker_px	    ground_marker_py	    ground_marker_pz	    ground_marker_px	    ground_marker_py	    ground_marker_pz	    ground_marker_px	    ground_marker_py	    ground_marker_pz	    ground_marker_px	    ground_marker_py	    ground_marker_pz	    ground_marker_px	    ground_marker_py	    ground_marker_pz	    ground_marker_px	    ground_marker_py	    ground_marker_pz	    ground_marker_px	    ground_marker_py	    ground_marker_pz	    ground_marker_px	    ground_marker_py	    ground_marker_pz	    ground_marker_px	    ground_marker_py	    ground_marker_pz	    ground_marker_px	    ground_marker_py	    ground_marker_pz	    ground_marker_px	    ground_marker_py	    ground_marker_pz	    ground_marker_px	    ground_marker_py	    ground_marker_pz	    ground_marker_px	    ground_marker_py	    ground_marker_pz	    ground_marker_px	    ground_marker_py	    ground_marker_pz	    ground_marker_px	    ground_marker_py	    ground_marker_pz	
          1.40833330	          0.77856612	          0.99640447	         -0.27829617	          9.52461815	          1.12462914	          3.37977219	        -10.96786690	         -4.36333370	          9.32535172	         -9.39258194	          9.74422836	          0.00000000	          0.00000000	        -10.02981091	         -3.38588881	          7.58197165	         -5.10992622	          5.21466923	          0.00000000	          0.00000000	        -24.01445770	         -1.81395817	         -0.38012981	          0.71129644	          0.91011745	         -0.27437964	          0.71188271	          0.89176768	         -0.22334859	          0.70569599	          0.89412510	         -0.32971272	          0.70331889	          0.47916046	         -0.20048814	          0.70062280	          0.48237363	         -0.36299023	          0.62470990	          0.06985844	         -0.17926334	          0.65568995	          0.06862629	         -0.35792771	          0.77856612	          0.99640447	         -0.27829617	          0.78475028	          0.99404800	         -0.17197509	          0.77238196	          0.99876094	         -0.38461727	          0.57888502	          1.00346529	         -0.22152990	          0.57070881	          1.00649083	         -0.31109872	          0.71645218	          0.48209903	         -0.14253011	          0.70507288	          0.48709884	         -0.42213514	          0.68960041	          0.49952957	         -0.25808981	          0.68981713	          0.49134648	         -0.31475201	          0.62327003	          0.07210065	         -0.14135689	          0.65151763	          0.06859879	         -0.39720672	          0.62173814	          0.07015708	         -0.20981221	          0.66344994	          0.07527241	         -0.32873237	          0.58026576	          0.04560244	         -0.19019423	          0.60938829	          0.04517658	         -0.35581571	          0.69653606	          1.39111710	         -0.28224668	          0.73416913	          1.18974400	         -0.28918120	          0.60927325	          1.46202993	         -0.28381720	          0.71369213	          1.39065278	         -0.20128337	          0.70445919	          1.38906419	         -0.35673544	          0.74537778	          0.04276754	         -0.18335773	          0.78348225	          0.04205576	         -0.37324831	          0.75769496	          0.60116458	         -0.07065838	          0.84757233	          0.62533200	         -0.36499608	          0.76686460	          0.65952879	         -0.14458030	          0.77163285	          0.68512541	         -0.39995757	          0.76334053	          0.57716388	         -0.16471693	          0.76152599	          0.59894049	         -0.40183032	          0.65421283	          0.14369293	         -0.07803270	          0.76806200	          0.17333645	         -0.35812590	          0.64525288	          0.20199418	         -0.14073993	          0.70222509	          0.22600824	         -0.36606064	
          1.41666663	          0.77857757	          0.99636626	         -0.27831143	          9.50337505	          1.12238455	          3.36701274	        -10.93403149	         -4.36626911	          9.34182262	         -9.40481949	          9.73297215	          0.00000000	          0.00000000	        -10.00375557	         -3.38035202	          7.57230949	         -5.11455536	          5.24346113	          0.00000000	          0.00000000	        -24.09362030	         -1.76513386	         -0.44231799	          0.71141124	          0.91021347	         -0.27429852	          0.71184278	          0.89175719	         -0.22337346	          0.70568049	          0.89411175	         -0.32973903	          0.70336282	          0.47912410	         -0.20048645	          0.70064974	          0.48236236	         -0.36296824	          0.62474942	          0.06985670	         -0.17925604	          0.65572774	          0.06861292	         -0.35792297	          0.77857757	          0.99636626	         -0.27831143	          0.78473645	          0.99401301	         -0.17200539	          0.77241874	          0.99871945	         -0.38461751	          0.57895756	          1.00351381	         -0.22146727	          0.57077682	          1.00651014	         -0.31104690	          0.71649867	          0.48206875	         -0.14252932	          0.70510304	          0.48708111	         -0.42211339	          0.68974978	          0.49946570	         -0.25817186	          0.68984246	          0.49125117	         -0.31472737	          0.62331092	          0.07209940	         -0.14134958	          0.65155804	          0.06858665	         -0.39720228	          0.62175137	          0.07009013	         -0.20981038	          0.66357118	          0.07520863	         -0.32872975	          0.58025694	          0.04562485	         -0.19019517	          0.60939956	          0.04519072	         -0.35583547	          0.69645983	          1.39101315	         -0.28230849	          0.73374426	          1.18957639	         -0.28927603	          0.60938752	          1.46204948	         -0.28373510	          0.71349478	          1.39048290	         -0.20136878	          0.70449007	          1.38897884	         -0.35673845	          0.74539369	          0.04275251	         -0.18336353	          0.78345156	          0.04216371	         -0.37333891	          0.75775695	          0.60115606	         -0.07065105	          0.84759510	          0.62528086	         -0.36497808	          0.76692301	          0.65945786	         -0.14457920	          0.77166909	          0.68501759	         -0.39994013	          0.76343435	          0.57708561	         -0.16475070	          0.76155990	          0.59884220	         -0.40180841	          0.65425831	          0.14366366	         -0.07803994	          0.76808494	          0.17330764	         -0.35807881	          0.64540231	          0.20188193	         -0.14076221	          0.70222706	          0.22589540	         -0.36603379	
          1.42499995	          0.77857202	          0.99635458	         -0.27832374	          9.48573303	          1.12133229	          3.34296083	        -10.90181351	         -4.37265062	          9.37436962	         -9.41965961	          9.72395229	          0.00000000	          0.00000000	         -9.98446941	         -3.37308216	          7.55151701	         -5.11589241	          5.28951120	          0.00000000	          0.00000000	        -24.05824089	         -1.82574153	         -0.25924277	          0.71154279	          0.91034484	         -0.27420333	          0.71178114	          0.89176863	         -0.22340988	          0.70566404	          0.89412123	         -0.32977811	          0.70339453	          0.47910663	         -0.20047720	          0.70065880	          0.48237982	         -0.36294913	          0.62476617	          0.06989592	         -0.17923975	          0.65575469	          0.06862985	         -0.35791647	          0.77857202	          0.99635458	         -0.27832374	          0.78468484	          0.99400359	         -0.17202966	          0.77245921	          0.99870551	         -0.38461784	          0.57902718	          1.00357902	         -0.22140723	          0.57084811	          1.00653851	         -0.31099734	          0.71653777	          0.48206022	         -0.14252222	          0.70511562	          0.48709059	         -0.42209467	          0.68980569	          0.49944875	         -0.25816050	          0.68988776	          0.49119037	         -0.31468281	          0.62333190	          0.07213880	         -0.14133312	          0.65158802	          0.06860428	         -0.39719608	          0.62176490	          0.07008991	         -0.20980646	          0.66364968	          0.07523258	         -0.32871494	          0.58025324	          0.04566506	         -0.19019072	          0.60941213	          0.04522151	         -0.35585478	          0.69670081	          1.39100659	         -0.28222916	          0.73402303	          1.18957889	         -0.28925541	          0.60947025	          1.46210039	         -0.28368628	          0.71397364	          1.39050174	         -0.20132193	          0.70451289	          1.38895583	         -0.35669926	          0.74539703	          0.04275626	         -0.18336470	          0.78339291	          0.04234405	         -0.37346295	          0.75780654	          0.60117561	         -0.07063401	          0.84760851	          0.62524951	         -0.36496314	          0.76695848	          0.65942538	         -0.14453498	          0.77168828	          0.68498534	         -0.39986953	          0.76348090	          0.57706052	         -0.16472316	          0.76157403	          0.59879911	         -0.40175989	          0.65428495	          0.14366311	         -0.07803966	          0.76810044	          0.17330210	         -0.35802600	          0.64544129	          0.20186585	         -0.14075844	          0.70220172	          0.22584815	         -0.36596063	
          1.43333328	          0.77858770	          0.99637330	         -0.27833045	          9.47594452	          1.12247896	          3.32882118	        -10.88536167	         -4.37960625	          9.39766312	         -9.43144321	          9.72248363	          0.00000000	          0.00000000	         -9.97949886	         -3.36672592	          7.54078531	         -5.10905981	          5.32893944	          0.00000000	          0.00000000	        -24.00063133	         -1.89898741	         -0.09467912	          0.71167755	          0.91048080	         -0.27410290	          0.71176481	          0.89179856	         -0.22343403	          0.70567453	          0.89415318	         -0.32980376	          0.70342064	          0.47911489	         -0.20046276	          0.70064354	          0.48242286	         -0.36293513	          0.62475073	          0.06997018	         -0.17921901	          0.65576357	          0.06867432	         -0.35790834	          0.77858770	          0.99637330	         -0.27833045	          0.78467333	          0.99402046	         -0.17204197	          0.77250201	          0.99872613	         -0.38461891	          0.57909542	          1.00364721	         -0.22135091	          0.57092392	          1.00656974	         -0.31095177	          0.71657264	          0.48207483	         -0.14251006	          0.70510429	          0.48712772	         -0.42208084	          0.68978739	          0.49951795	         -0.25810984	          0.68995970	          0.49118453	         -0.31462866	          0.62332177	          0.07221315	         -0.14131220	          0.65160000	          0.06864871	         -0.39718831	          0.62177545	          0.07015556	         -0.20981051	          0.66366190	          0.07530885	         -0.32870069	          0.58025938	          0.04571429	         -0.19018301	          0.60942578	          0.04526277	         -0.35587251	          0.69692069	          1.39107192	         -0.28210044	          0.73439085	          1.18967211	         -0.28913650	          0.60953110	          1.46214366	         -0.28366816	          0.71442592	          1.39062059	         -0.20118949	          0.70452058	          1.38899159	         -0.35664397	          0.74538606	          0.04278046	         -0.18336025	          0.78334600	          0.04251664	         -0.37355286	          0.75784379	          0.60121804	         -0.07061078	          0.84761071	          0.62524176	         -0.36495218	          0.76699781	          0.65943485	         -0.14446716	          0.77167201	          0.68502694	         -0.39980128	          0.76349622	          0.57710785	         -0.16466254	          0.76157701	          0.59883112	         -0.40171075	          0.65428776	          0.14369120	         -0.07803376	          0.76810408	          0.17332461	         -0.35797155	          0.64522690	          0.20198298	         -0.14075896	          0.70217043	          0.22589494	         -0.36589134	
